Coordinates
version=1
nRows=41
nColumns=38
inDegrees=no

Units are S.I. units (second, meters, Newtons, ...)
If the header above contains a line with 'inDegrees', this indicates whether rotational values are in degrees (yes) or radians (no).

endheader
time	pelvis_tilt	pelvis_list	pelvis_rotation	pelvis_tx	pelvis_ty	pelvis_tz	hip_flexion_r	hip_adduction_r	hip_rotation_r	knee_angle_r	ankle_angle_r	subtalar_angle_r	mtp_angle_r	hip_flexion_l	hip_adduction_l	hip_rotation_l	knee_angle_l	ankle_angle_l	subtalar_angle_l	mtp_angle_l	lumbar_extension	lumbar_bending	lumbar_rotation	arm_flex_r	arm_add_r	arm_rot_r	elbow_flex_r	pro_sup_r	wrist_flex_r	wrist_dev_r	arm_flex_l	arm_add_l	arm_rot_l	elbow_flex_l	pro_sup_l	wrist_flex_l	wrist_dev_l
64	0.0209025	1.46921	1.53154	0.670369	0.847948	1.02134	0.334034	-0.123818	-0.250541	0.651702	-0.17834	0	0	0.257728	-0.109315	-0.351501	0.537181	-0.248549	0	0	0.0342294	0.130743	-0.322414	0.356792	-0.227145	0.431793	0.10721	1.5708	0	0	-0.353134	-0.212833	-0.0684848	0.944407	1.40166	0	0
64.01	0.0328635	1.4691	1.52135	0.670116	0.848519	1.02431	0.323435	-0.120529	-0.253438	0.629516	-0.189791	0	0	0.247111	-0.106746	-0.352151	0.512268	-0.262776	0	0	0.0387275	0.125896	-0.324752	0.348154	-0.222244	0.438907	0.11669	1.5708	0	0	-0.356031	-0.212078	-0.0703307	0.94501	1.40339	0	0
64.02	0.0480506	1.46937	1.50805	0.669829	0.849164	1.02723	0.311629	-0.117243	-0.257438	0.607365	-0.202067	0	0	0.235762	-0.104332	-0.351609	0.486989	-0.278175	0	0	0.0427267	0.121599	-0.326798	0.338835	-0.218372	0.448384	0.12752	1.5708	0	0	-0.358308	-0.211411	-0.071027	0.944819	1.40593	0	0
64.03	0.0647765	1.4691	1.49323	0.669563	0.849817	1.02999	0.300626	-0.113349	-0.26171	0.585047	-0.212632	0	0	0.224998	-0.102278	-0.350453	0.462139	-0.291501	0	0	0.0473903	0.117759	-0.328565	0.329991	-0.214545	0.455941	0.137082	1.5708	0	0	-0.36015	-0.210645	-0.0711196	0.943765	1.40827	0	0
64.04	0.0832029	1.46917	1.47628	0.669291	0.850422	1.03267	0.289031	-0.109544	-0.265803	0.56354	-0.223155	0	0	0.213775	-0.10059	-0.350225	0.437443	-0.305164	0	0	0.0512721	0.114565	-0.329282	0.321605	-0.211263	0.462703	0.146505	1.5708	0	0	-0.360859	-0.209503	-0.0712029	0.942061	1.4107	0	0
64.05	0.099343	1.46926	1.46164	0.669008	0.85101	1.03519	0.277752	-0.106032	-0.270343	0.541666	-0.234292	0	0	0.202562	-0.0987368	-0.350704	0.412894	-0.31917	0	0	0.0549925	0.111146	-0.329765	0.313083	-0.208219	0.470108	0.156183	1.5708	0	0	-0.361624	-0.208615	-0.0709481	0.940728	1.41365	0	0
64.06	0.116064	1.46922	1.44656	0.66874	0.851636	1.03757	0.26647	-0.102311	-0.275033	0.518927	-0.245876	0	0	0.191503	-0.0970107	-0.350706	0.388802	-0.333211	0	0	0.0589014	0.107902	-0.330111	0.304256	-0.205558	0.477044	0.166202	1.5708	0	0	-0.3625	-0.207752	-0.0704661	0.939311	1.41688	0	0
64.07	0.13607	1.46931	1.42848	0.668429	0.852337	1.03988	0.254343	-0.0988023	-0.281011	0.497447	-0.256923	0	0	0.180317	-0.0954742	-0.350332	0.364951	-0.347318	0	0	0.0626914	0.105251	-0.330095	0.295097	-0.20352	0.48403	0.176286	1.5708	0	0	-0.362803	-0.206365	-0.0701749	0.937263	1.42036	0	0
64.08	0.156597	1.46913	1.40983	0.66811	0.853013	1.04204	0.24252	-0.0951559	-0.287261	0.4758	-0.267885	0	0	0.16951	-0.0941311	-0.34992	0.341609	-0.361306	0	0	0.0667443	0.103045	-0.329802	0.286383	-0.202063	0.491715	0.186032	1.5708	0	0	-0.362825	-0.204702	-0.0698736	0.934675	1.42395	0	0
64.09	0.176791	1.46865	1.39165	0.667835	0.853628	1.04397	0.231621	-0.0912227	-0.293718	0.454408	-0.284486	0	0	0.159657	-0.0933521	-0.349444	0.319157	-0.380246	0	0	0.0709963	0.102967	-0.325568	0.260106	-0.248189	0.679067	0.275586	1.35106	0	0	-0.358701	-0.203882	-0.0635801	0.928769	1.42786	0	0
64.1	0.199372	1.46803	1.37135	0.667448	0.854243	1.04582	0.221119	-0.0873466	-0.301102	0.434125	-0.298913	0	0	0.149698	-0.0920959	-0.34837	0.297514	-0.396343	0	0	0.074386	0.100055	-0.326406	0.259356	-0.217417	0.558426	0.238779	1.51317	0	0	-0.360233	-0.20151	-0.0677771	0.928402	1.43427	0	0
64.11	0.22009	1.46824	1.35233	0.667158	0.854776	1.04752	0.210306	-0.0837466	-0.307931	0.414809	-0.309122	0	0	0.139284	-0.0909761	-0.346663	0.276718	-0.408253	0	0	0.0776359	0.0984191	-0.325716	0.252998	-0.214941	0.558614	0.244514	1.52014	0	0	-0.360007	-0.200421	-0.0666288	0.926011	1.43557	0	0
64.12	0.240753	1.46937	1.33182	0.666951	0.855221	1.04909	0.199088	-0.080031	-0.312026	0.395808	-0.31898	0	0	0.12779	-0.0897889	-0.345167	0.256431	-0.419433	0	0	0.0793748	0.0970554	-0.323224	0.247498	-0.212467	0.560363	0.249312	1.52983	0	0	-0.3591	-0.199426	-0.0651201	0.923564	1.43588	0	0
64.13	0.261165	1.46962	1.31247	0.666687	0.855655	1.05039	0.188843	-0.0764537	-0.316898	0.377406	-0.328481	0	0	0.11801	-0.0889554	-0.344899	0.237582	-0.430189	0	0	0.0822576	0.0957747	-0.32162	0.24201	-0.210194	0.561619	0.253632	1.53999	0	0	-0.35857	-0.198714	-0.0631399	0.921188	1.43532	0	0
64.14	0.282021	1.46935	1.29334	0.666413	0.856067	1.05146	0.179332	-0.0728851	-0.322506	0.359742	-0.338473	0	0	0.109558	-0.0885715	-0.344684	0.22033	-0.441312	0	0	0.0857284	0.0946661	-0.320527	0.236467	-0.20798	0.561579	0.257571	1.54964	0	0	-0.357998	-0.19837	-0.0606631	0.918595	1.4341	0	0
64.15	0.299987	1.46853	1.27713	0.666156	0.856409	1.05227	0.171257	-0.0696166	-0.327867	0.343952	-0.346248	0	0	0.102551	-0.0885988	-0.344835	0.205211	-0.449991	0	0	0.089701	0.0934943	-0.319482	0.231561	-0.205601	0.561309	0.260534	1.55756	0	0	-0.357619	-0.19821	-0.0584464	0.916276	1.43253	0	0
64.16	0.315369	1.46731	1.2638	0.66584	0.856642	1.05285	0.164285	-0.0666271	-0.332635	0.32948	-0.352981	0	0	0.0969167	-0.0889692	-0.345605	0.192074	-0.457572	0	0	0.0939756	0.0923198	-0.318498	0.227248	-0.203035	0.560714	0.262378	1.5641	0	0	-0.356866	-0.198142	-0.0563655	0.913847	1.43072	0	0
64.17	0.328899	1.46576	1.25281	0.665441	0.856756	1.05322	0.158322	-0.0640564	-0.337568	0.316344	-0.358345	0	0	0.0927554	-0.089524	-0.348016	0.180616	-0.463801	0	0	0.098524	0.0912345	-0.317981	0.223747	-0.200187	0.559627	0.262867	1.56844	0	0	-0.355767	-0.198104	-0.0543959	0.911054	1.42843	0	0
64.18	0.344395	1.46485	1.23961	0.665097	0.856807	1.05349	0.15216	-0.0613616	-0.341837	0.303899	-0.363093	0	0	0.0881907	-0.0902921	-0.349234	0.169855	-0.468966	0	0	0.102286	0.0903492	-0.316991	0.221141	-0.196828	0.55775	0.261656	1.5708	0	0	-0.354105	-0.198326	-0.0522043	0.907656	1.42535	0	0
64.19	0.361411	1.46452	1.22413	0.664869	0.856844	1.0537	0.145805	-0.0585158	-0.345023	0.291953	-0.367653	0	0	0.0830635	-0.0911007	-0.348402	0.159596	-0.47323	0	0	0.105427	0.0896881	-0.314978	0.219251	-0.192846	0.554376	0.258409	1.5708	0	0	-0.351857	-0.198612	-0.0498322	0.90318	1.42163	0	0
64.2	0.377724	1.46401	1.2092	0.664628	0.856791	1.05385	0.140077	-0.0556377	-0.346936	0.280471	-0.372619	0	0	0.0784677	-0.0919159	-0.346142	0.150105	-0.477245	0	0	0.108901	0.0895013	-0.312403	0.217946	-0.188401	0.54863	0.252728	1.5708	0	0	-0.348374	-0.198446	-0.047157	0.896587	1.41742	0	0
64.21	0.394025	1.46352	1.19411	0.664409	0.856735	1.0539	0.135027	-0.0528842	-0.348775	0.270577	-0.376227	0	0	0.0742272	-0.0929982	-0.343896	0.141935	-0.479964	0	0	0.11213	0.0894194	-0.309732	0.216907	-0.18414	0.543343	0.246873	1.5708	0	0	-0.344996	-0.198169	-0.045063	0.889972	1.41374	0	0
64.22	0.40992	1.46319	1.17954	0.664155	0.856634	1.05389	0.130117	-0.0504291	-0.350547	0.261519	-0.379409	0	0	0.0702096	-0.0940564	-0.342013	0.134485	-0.482261	0	0	0.115113	0.0896373	-0.307128	0.216549	-0.180188	0.538455	0.240163	1.5708	0	0	-0.341192	-0.197882	-0.0427572	0.882711	1.41003	0	0
64.23	0.423834	1.46257	1.16747	0.663856	0.856568	1.05381	0.125553	-0.0481901	-0.352475	0.252749	-0.382611	0	0	0.0667139	-0.0948647	-0.339637	0.126923	-0.484485	0	0	0.118722	0.0899075	-0.304964	0.216492	-0.176345	0.533271	0.232262	1.5708	0	0	-0.337331	-0.197555	-0.0401059	0.874498	1.40595	0	0
64.24	0.439852	1.46186	1.15331	0.663535	0.856486	1.05373	0.120902	-0.0456389	-0.354231	0.243691	-0.385927	0	0	0.0633029	-0.0960906	-0.336929	0.119701	-0.486539	0	0	0.122183	0.090664	-0.30298	0.216997	-0.17244	0.527519	0.223389	1.5708	0	0	-0.333261	-0.197136	-0.0372092	0.865673	1.40154	0	0
64.25	0.457945	1.46139	1.13678	0.663258	0.856376	1.05365	0.115983	-0.0429477	-0.355828	0.234905	-0.389445	0	0	0.0598341	-0.0974038	-0.335074	0.112936	-0.488554	0	0	0.125184	0.091758	-0.300899	0.21798	-0.168528	0.521608	0.213907	1.5708	0	0	-0.329084	-0.196828	-0.0338293	0.856556	1.39689	0	0
64.26	0.477389	1.46094	1.11878	0.663027	0.856279	1.05358	0.110814	-0.0400637	-0.35783	0.225954	-0.393109	0	0	0.0563901	-0.0990481	-0.33381	0.106638	-0.49073	0	0	0.128097	0.0930203	-0.298763	0.219086	-0.164735	0.515922	0.203912	1.5708	0	0	-0.324965	-0.196673	-0.0300619	0.847011	1.39198	0	0
64.27	0.49683	1.4603	1.10058	0.662874	0.856172	1.05354	0.105743	-0.0369667	-0.3607	0.216726	-0.396892	0	0	0.0530822	-0.101042	-0.332493	0.100468	-0.493209	0	0	0.131113	0.0945284	-0.296739	0.220381	-0.161049	0.511036	0.193627	1.5708	0	0	-0.320996	-0.196755	-0.025657	0.837016	1.38714	0	0
64.28	0.514016	1.45929	1.08429	0.662733	0.856002	1.0535	0.101158	-0.0338718	-0.363406	0.207097	-0.400707	0	0	0.0499246	-0.102872	-0.330765	0.0935034	-0.49597	0	0	0.134295	0.096259	-0.294665	0.222106	-0.157843	0.507299	0.183438	1.5708	0	0	-0.317071	-0.196877	-0.02077	0.826838	1.38237	0	0
64.29	0.529421	1.45864	1.0702	0.662495	0.855859	1.05349	0.0958647	-0.0310655	-0.364444	0.196687	-0.404322	0	0	0.0463853	-0.10422	-0.329483	0.0863116	-0.498876	0	0	0.137199	0.0977076	-0.293248	0.224005	-0.155084	0.50461	0.173592	1.5708	0	0	-0.313483	-0.197005	-0.0156592	0.816839	1.37753	0	0
64.3	0.543207	1.45821	1.05789	0.662202	0.855743	1.05346	0.0901274	-0.0284218	-0.364045	0.185757	-0.407628	0	0	0.0424145	-0.104899	-0.328581	0.0782864	-0.501865	0	0	0.139881	0.098882	-0.292278	0.22594	-0.152762	0.502633	0.164177	1.5708	0	0	-0.310169	-0.19718	-0.0105266	0.806856	1.3727	0	0
64.31	0.557997	1.4579	1.04417	0.662002	0.855716	1.05342	0.0840397	-0.0255222	-0.36303	0.174793	-0.410525	0	0	0.0377371	-0.10573	-0.327222	0.0698826	-0.504568	0	0	0.142513	0.0999518	-0.291296	0.227596	-0.150688	0.501126	0.155236	1.5708	0	0	-0.307647	-0.197579	-0.00545878	0.797396	1.36803	0	0
64.32	0.569279	1.45724	1.0339	0.661809	0.85569	1.05326	0.0786013	-0.0230422	-0.361743	0.164198	-0.412914	0	0	0.0334167	-0.10644	-0.325836	0.0614081	-0.50697	0	0	0.145636	0.100726	-0.290619	0.228926	-0.148822	0.49941	0.14704	1.5708	0	0	-0.305739	-0.198092	-0.00049787	0.788335	1.36336	0	0
64.33	0.577701	1.4562	1.02656	0.66159	0.855607	1.053	0.0741221	-0.0208351	-0.360585	0.15442	-0.414707	0	0	0.0294946	-0.107	-0.324134	0.0526057	-0.509202	0	0	0.148981	0.101403	-0.290203	0.230015	-0.147327	0.497493	0.139939	1.5708	0	0	-0.303969	-0.198635	0.00459975	0.779525	1.35876	0	0
64.34	0.583969	1.4552	1.02148	0.661373	0.855492	1.05266	0.0702383	-0.0191348	-0.359787	0.145697	-0.415817	0	0	0.0255359	-0.107201	-0.321561	0.0434569	-0.511253	0	0	0.152231	0.101841	-0.290114	0.230877	-0.146133	0.495498	0.133996	1.5708	0	0	-0.302309	-0.199328	0.00981343	0.77083	1.35455	0	0
64.35	0.588122	1.45426	1.01865	0.661201	0.855418	1.05222	0.0669447	-0.0178334	-0.360369	0.138452	-0.416219	0	0	0.0213884	-0.107142	-0.318089	0.0337647	-0.512952	0	0	0.155686	0.101785	-0.290085	0.231023	-0.145211	0.493237	0.129241	1.5708	0	0	-0.300907	-0.200155	0.0147668	0.762173	1.35067	0	0
64.36	0.59084	1.45333	1.01761	0.661082	0.85537	1.05171	0.0642714	-0.0168212	-0.362257	0.132422	-0.415904	0	0	0.0176111	-0.107158	-0.314287	0.0248226	-0.514049	0	0	0.159414	0.101244	-0.289888	0.23037	-0.144679	0.490694	0.125576	1.5708	0	0	-0.299234	-0.201076	0.0196096	0.752826	1.34738	0	0
64.37	0.588437	1.4518	1.02172	0.661032	0.855282	1.05111	0.0635583	-0.0162843	-0.364933	0.128503	-0.415106	0	0	0.0154455	-0.107069	-0.3104	0.0170416	-0.514636	0	0	0.164234	0.100399	-0.289262	0.228795	-0.14444	0.487101	0.122894	1.5708	0	0	-0.29728	-0.201846	0.0243071	0.742641	1.34468	0	0
64.38	0.590825	1.44673	1.01998	0.66054	0.855312	1.05033	0.0669072	-0.0140915	-0.367066	0.127213	-0.414257	0	0	0.0159966	-0.109252	-0.306958	0.00946032	-0.514772	0	0	0.171656	0.103127	-0.288649	0.226998	-0.146447	0.482271	0.121382	1.5708	0	0	-0.295208	-0.20012	0.029264	0.731365	1.34236	0	0
64.39	0.590933	1.44193	1.02084	0.660095	0.855256	1.04958	0.0709815	-0.0124287	-0.36942	0.127504	-0.413231	0	0	0.0172493	-0.111548	-0.30271	0.00322389	-0.514758	0	0	0.178767	0.105539	-0.28826	0.225385	-0.14826	0.477156	0.119732	1.5708	0	0	-0.292361	-0.198564	0.0347055	0.719011	1.3399	0	0
64.4	0.591013	1.43792	1.02211	0.659709	0.855108	1.04895	0.0748221	-0.0111291	-0.371434	0.128435	-0.41225	0	0	0.0191488	-0.113732	-0.29917	0	-0.514554	0	0	0.184805	0.107527	-0.288042	0.224266	-0.149633	0.472227	0.117579	1.5708	0	0	-0.288745	-0.1972	0.0401728	0.705922	1.33729	0	0
